<svg xmlns="http://www.w3.org/2000/svg" xmlns:xlink="http://www.w3.org/1999/xlink" fill="none" version="1.1" width="46" height="54" viewBox="0 0 46 54"><defs><clipPath id="master_svg0_169_0351"><rect x="0" y="0" width="46" height="54" rx="0"/></clipPath></defs><g clip-path="url(#master_svg0_169_0351)"><g><g><path d="M46,26.9103C46.0041,29.2368,44.9098,31.3579,43.1894,32.3583L7.07106,53.2475C6.41001,53.6875,5.6777,53.9445,4.92615,54C1.35335,53.9909,-1.02577,49.4904,0.439091,45.5119L6.06024,29.9202L19.7186,29.9202C21.0803,29.9202,22.1841,28.5726,22.1841,26.9103C22.1841,25.2479,21.0803,23.9003,19.7186,23.9003L6.06024,23.9003L0.439091,8.45915C-0.395026,6.16123,0.0280231,3.47249,1.50015,1.71544C2.97227,-0.0416037,5.18359,-0.497091,7.04641,0.573023L43.1648,21.4622C44.8952,22.4546,46,24.5776,46,26.9103Z" fill="#0D1271" fill-opacity="1"/></g></g></g></svg>