<svg xmlns="http://www.w3.org/2000/svg" xmlns:xlink="http://www.w3.org/1999/xlink" fill="none" version="1.1" width="17" height="17" viewBox="0 0 17 17"><defs><clipPath id="master_svg0_224_11619"><rect x="0" y="0" width="17" height="17" rx="0"/></clipPath><clipPath id="master_svg1_224_11620"><rect x="0" y="0" width="17" height="17" rx="0"/></clipPath></defs><g clip-path="url(#master_svg0_224_11619)"><g clip-path="url(#master_svg1_224_11620)"><g><path d="M2.832685625,5.666015625L14.166015625,5.666015625L14.166015625,14.874315625C14.166015625,15.265515625,13.848915625,15.582715625,13.457715625,15.582715625L3.541015625,15.582715625C3.149815625,15.582715625,2.832685625,15.265515625,2.832685625,14.874315625L2.832685625,5.666015625ZM4.957685625,3.541015625L4.957685625,2.124348625C4.957685625,1.733147625,5.2748156250000005,1.416015625,5.666015625,1.416015625L11.332685625,1.416015625C11.723915625,1.416015625,12.041015625,1.733147625,12.041015625,2.124348625L12.041015625,3.541015625L15.582715625,3.541015625L15.582715625,4.957685625L1.416015625,4.957685625L1.416015625,3.541015625L4.957685625,3.541015625ZM6.374345625,2.832685625L6.374345625,3.541015625L10.624345625,3.541015625L10.624345625,2.832685625L6.374345625,2.832685625ZM6.374345625,8.499345625L6.374345625,12.749315625L7.791015625,12.749315625L7.791015625,8.499345625L6.374345625,8.499345625ZM9.207685625,8.499345625L9.207685625,12.749315625L10.624345625,12.749315625L10.624345625,8.499345625L9.207685625,8.499345625Z" fill="#3D3D3D" fill-opacity="1" style="mix-blend-mode:passthrough"/></g></g></g></svg>